<?xml version="1.0" encoding="UTF-8"?>
<svg width="400" height="300" viewBox="0 0 400 300" xmlns="http://www.w3.org/2000/svg">
  <!-- Dark background -->
  <rect x="0" y="0" width="400" height="300" fill="#0A1929"/>

  <!-- Stars -->
  <circle cx="30" cy="30" r="1" fill="#FFFFFF" opacity="0.7"/>
  <circle cx="60" cy="50" r="1" fill="#FFFFFF" opacity="0.7"/>
  <circle cx="100" cy="20" r="1" fill="#FFFFFF" opacity="0.7"/>
  <circle cx="150" cy="40" r="1" fill="#FFFFFF" opacity="0.7"/>
  <circle cx="200" cy="15" r="1" fill="#FFFFFF" opacity="0.7"/>
  <circle cx="250" cy="35" r="1" fill="#FFFFFF" opacity="0.7"/>
  <circle cx="300" cy="25" r="1" fill="#FFFFFF" opacity="0.7"/>
  <circle cx="350" cy="45" r="1" fill="#FFFFFF" opacity="0.7"/>
  <circle cx="380" cy="15" r="1" fill="#FFFFFF" opacity="0.7"/>

  <!-- Ground -->
  <rect x="0" y="200" width="400" height="100" fill="#0F1922"/>

  <!-- Billboard structure -->
  <rect x="100" y="50" width="200" height="120" fill="#FFFFFF" stroke="#333333" stroke-width="3"/>

  <!-- Billboard support -->
  <rect x="190" y="170" width="20" height="80" fill="#555555"/>

  <!-- Billboard content -->
  <text x="200" y="100" font-family="Arial" font-size="16" text-anchor="middle" fill="#333333">YOUR AD HERE</text>
  <rect x="130" y="110" width="140" height="40" fill="#3498DB"/>
  <text x="200" y="135" font-family="Arial" font-size="14" text-anchor="middle" fill="#FFFFFF">BILLBOARD</text>

  <!-- Clouds -->
  <ellipse cx="80" cy="40" rx="25" ry="15" fill="#FFFFFF"/>
  <ellipse cx="100" cy="40" rx="20" ry="12" fill="#FFFFFF"/>
  <ellipse cx="60" cy="40" rx="20" ry="12" fill="#FFFFFF"/>

  <ellipse cx="320" cy="60" rx="25" ry="15" fill="#FFFFFF"/>
  <ellipse cx="340" cy="60" rx="20" ry="12" fill="#FFFFFF"/>
  <ellipse cx="300" cy="60" rx="20" ry="12" fill="#FFFFFF"/>
</svg>
