<?xml version="1.0" encoding="UTF-8"?>
<svg width="800" height="600" viewBox="0 0 800 600" xmlns="http://www.w3.org/2000/svg">
  <!-- Gradient definitions -->
  <defs>
    <linearGradient id="skyGradient" x1="0%" y1="0%" x2="0%" y2="100%">
      <stop offset="0%" stop-color="#0B1722" />
      <stop offset="50%" stop-color="#1A2A38" />
      <stop offset="100%" stop-color="#2A3B4C" />
    </linearGradient>
    <linearGradient id="unipoleGradient" x1="0%" y1="0%" x2="100%" y2="0%">
      <stop offset="0%" stop-color="#3498DB" />
      <stop offset="100%" stop-color="#2980B9" />
    </linearGradient>
    <radialGradient id="glowGradient" cx="50%" cy="50%" r="50%" fx="50%" fy="50%">
      <stop offset="0%" stop-color="#3498DB" stop-opacity="0.3" />
      <stop offset="100%" stop-color="#000000" stop-opacity="0" />
    </radialGradient>
    <filter id="glow" x="-50%" y="-50%" width="200%" height="200%">
      <feGaussianBlur stdDeviation="10" result="blur" />
      <feComposite in="SourceGraphic" in2="blur" operator="over" />
    </filter>
  </defs>
  
  <!-- Background -->
  <rect x="0" y="0" width="800" height="600" fill="url(#skyGradient)"/>
  
  <!-- Stars -->
  <g opacity="0.8">
    <circle cx="50" cy="50" r="1" fill="white"/>
    <circle cx="150" cy="80" r="1.2" fill="white"/>
    <circle cx="250" cy="40" r="1" fill="white"/>
    <circle cx="350" cy="70" r="1.3" fill="white"/>
    <circle cx="450" cy="30" r="1" fill="white"/>
    <circle cx="550" cy="60" r="1.2" fill="white"/>
    <circle cx="650" cy="40" r="1" fill="white"/>
    <circle cx="750" cy="70" r="1.3" fill="white"/>
    <circle cx="100" cy="120" r="1" fill="white"/>
    <circle cx="200" cy="150" r="1.2" fill="white"/>
    <circle cx="300" cy="110" r="1" fill="white"/>
    <circle cx="400" cy="140" r="1.3" fill="white"/>
    <circle cx="500" cy="100" r="1" fill="white"/>
    <circle cx="600" cy="130" r="1.2" fill="white"/>
    <circle cx="700" cy="90" r="1" fill="white"/>
    <circle cx="80" cy="180" r="1.3" fill="white"/>
    <circle cx="180" cy="210" r="1" fill="white"/>
    <circle cx="280" cy="170" r="1.2" fill="white"/>
    <circle cx="380" cy="200" r="1" fill="white"/>
    <circle cx="480" cy="160" r="1.3" fill="white"/>
    <circle cx="580" cy="190" r="1" fill="white"/>
    <circle cx="680" cy="150" r="1.2" fill="white"/>
    <circle cx="780" cy="180" r="1" fill="white"/>
  </g>
  
  <!-- City skyline -->
  <path d="M0,400 L30,400 L30,380 L50,380 L50,350 L70,350 L70,370 L90,370 L90,340 L110,340 L110,390 L130,390 L130,360 L150,360 L150,400 L170,400 L170,370 L190,370 L190,350 L210,350 L210,380 L230,380 L230,340 L250,340 L250,370 L270,370 L270,390 L290,390 L290,350 L310,350 L310,400 L330,400 L330,380 L350,380 L350,360 L370,360 L370,330 L390,330 L390,350 L410,350 L410,380 L430,380 L430,400 L450,400 L450,370 L470,370 L470,350 L490,350 L490,380 L510,380 L510,360 L530,360 L530,390 L550,390 L550,370 L570,370 L570,340 L590,340 L590,380 L610,380 L610,350 L630,350 L630,370 L650,370 L650,390 L670,390 L670,360 L690,360 L690,380 L710,380 L710,350 L730,350 L730,400 L750,400 L750,380 L770,380 L770,360 L790,360 L790,400 L800,400 L800,600 L0,600 Z" fill="#0A1520"/>
  
  <!-- Ground -->
  <rect x="0" y="400" width="800" height="200" fill="#1A1A1A"/>
  
  <!-- Unipole structure -->
  <rect x="380" y="150" width="40" height="250" fill="#444444"/>
  <rect x="370" y="150" width="60" height="10" fill="#555555"/>
  <rect x="370" y="180" width="60" height="10" fill="#555555"/>
  <rect x="370" y="210" width="60" height="10" fill="#555555"/>
  <rect x="370" y="240" width="60" height="10" fill="#555555"/>
  <rect x="370" y="270" width="60" height="10" fill="#555555"/>
  <rect x="370" y="300" width="60" height="10" fill="#555555"/>
  <rect x="370" y="330" width="60" height="10" fill="#555555"/>
  <rect x="370" y="360" width="60" height="10" fill="#555555"/>
  <rect x="370" y="390" width="60" height="10" fill="#555555"/>
  
  <!-- Unipole base -->
  <rect x="350" y="400" width="100" height="20" fill="#333333"/>
  <rect x="340" y="420" width="120" height="10" fill="#222222"/>
  
  <!-- Unipole display -->
  <g>
    <!-- Main panel -->
    <rect x="200" y="50" width="400" height="100" rx="5" ry="5" fill="#FFFFFF" stroke="#666666" stroke-width="3"/>
    
    <!-- Display content -->
    <rect x="205" y="55" width="390" height="90" rx="3" ry="3" fill="url(#unipoleGradient)"/>
    <text x="400" y="105" font-family="Arial" font-size="36" font-weight="bold" text-anchor="middle" fill="#FFFFFF">UNIPOLE DISPLAY</text>
    <text x="400" y="135" font-family="Arial" font-size="16" text-anchor="middle" fill="#E0E0E0">Elevated Impact • Premium Visibility</text>
  </g>
  
  <!-- Glow effect -->
  <ellipse cx="400" cy="100" rx="220" ry="70" fill="url(#glowGradient)" filter="url(#glow)"/>
  
  <!-- Traffic lights -->
  <g transform="translate(150, 380)">
    <rect x="0" y="0" width="5" height="70" fill="#555555"/>
    <rect x="-10" y="0" width="25" height="30" rx="2" ry="2" fill="#333333"/>
    <circle cx="2.5" cy="10" r="5" fill="#FF0000"/>
    <circle cx="2.5" cy="20" r="5" fill="#FFEB3B"/>
  </g>
  
  <g transform="translate(650, 380)">
    <rect x="0" y="0" width="5" height="70" fill="#555555"/>
    <rect x="-10" y="0" width="25" height="30" rx="2" ry="2" fill="#333333"/>
    <circle cx="2.5" cy="10" r="5" fill="#FF0000"/>
    <circle cx="2.5" cy="20" r="5" fill="#FFEB3B"/>
  </g>
  
  <!-- Cars -->
  <g transform="translate(100, 500)">
    <rect x="0" y="0" width="60" height="20" rx="5" ry="5" fill="#4CAF50"/>
    <rect x="10" y="-12" width="30" height="12" rx="3" ry="3" fill="#388E3C"/>
    <circle cx="15" cy="20" r="6" fill="#333333"/>
    <circle cx="15" cy="20" r="3" fill="#666666"/>
    <circle cx="45" cy="20" r="6" fill="#333333"/>
    <circle cx="45" cy="20" r="3" fill="#666666"/>
    <rect x="55" y="5" width="5" height="3" fill="#FFEB3B"/>
  </g>
  
  <g transform="translate(500, 520)">
    <rect x="0" y="0" width="70" height="25" rx="5" ry="5" fill="#9C27B0"/>
    <rect x="15" y="-15" width="40" height="15" rx="3" ry="3" fill="#7B1FA2"/>
    <circle cx="20" cy="25" r="7" fill="#333333"/>
    <circle cx="20" cy="25" r="3" fill="#666666"/>
    <circle cx="55" cy="25" r="7" fill="#333333"/>
    <circle cx="55" cy="25" r="3" fill="#666666"/>
    <rect x="65" y="7" width="5" height="3" fill="#FFEB3B"/>
  </g>
  
  <g transform="translate(300, 530)">
    <rect x="0" y="0" width="80" height="20" rx="5" ry="5" fill="#F44336"/>
    <rect x="15" y="-13" width="45" height="13" rx="3" ry="3" fill="#D32F2F"/>
    <circle cx="20" cy="20" r="7" fill="#333333"/>
    <circle cx="20" cy="20" r="3" fill="#666666"/>
    <circle cx="60" cy="20" r="7" fill="#333333"/>
    <circle cx="60" cy="20" r="3" fill="#666666"/>
    <rect x="75" y="5" width="5" height="3" fill="#FFEB3B"/>
  </g>
  
  <g transform="translate(700, 510)">
    <rect x="0" y="0" width="65" height="22" rx="5" ry="5" fill="#2196F3"/>
    <rect x="12" y="-14" width="35" height="14" rx="3" ry="3" fill="#1976D2"/>
    <circle cx="18" cy="22" r="7" fill="#333333"/>
    <circle cx="18" cy="22" r="3" fill="#666666"/>
    <circle cx="52" cy="22" r="7" fill="#333333"/>
    <circle cx="52" cy="22" r="3" fill="#666666"/>
    <rect x="60" y="6" width="5" height="3" fill="#FFEB3B"/>
  </g>
</svg>
